# xmcd
#
# Track frame offsets:
#	150
#	18269
#	34773
#	54128
#	79709
#	103973
#	119468
#
# Disc length: 2075 seconds
#
# Revision: 0
# Processed by: cddbd v1.5.2PL0 Copyright (c) Steve Scherf et al.
# Submitted via: EasyCDDAExtractor 8.1.0.1
#
DISCID=4e081907
DTITLE=Various Artist - Live im Chicago Zug [CD2)
DYEAR=2007
DGENRE=
TTITLE0=The  Biscuit Rollers - My Baby
TTITLE1=The  Biscuit Rollers - Chitlins con carne
TTITLE2=The  Biscuit Rollers - Lookin' Back
TTITLE3=The  Biscuit Rollers - Pride and joy
TTITLE4=The  Biscuit Rollers - Route 66
TTITLE5=The  Biscuit Rollers and Friends - Blue suede shoes
TTITLE6=The  Biscuit Rollers and Friends - Rats and Roaches
EXTD=
EXTT0=
EXTT1=
EXTT2=
EXTT3=
EXTT4=
EXTT5=
EXTT6=
PLAYORDER=
